<?xml version="1.0" standalone="no"?>
<!DOCTYPE svg PUBLIC "-//W3C//DTD SVG 20010904//EN"
 "http://www.w3.org/TR/2001/REC-SVG-20010904/DTD/svg10.dtd">
<svg version="1.0" xmlns="http://www.w3.org/2000/svg"
 width="700.000000pt" height="700.000000pt" viewBox="0 0 700.000000 700.000000"
 preserveAspectRatio="xMidYMid meet">
<metadata>
Created by potrace 1.11, written by Peter Selinger 2001-2013
</metadata>
<g transform="translate(0.000000,700.000000) scale(0.100000,-0.100000)"
fill="#000000" stroke="none">
<path d="M4315 5683 c-2 -8 -22 -13 -47 -13 -32 0 -39 -3 -28 -10 9 -6 10 -10
3 -10 -6 0 -15 5 -19 11 -4 8 -9 8 -17 0 -6 -6 -52 -11 -109 -11 -73 0 -98 -3
-98 -13 0 -9 -18 -12 -62 -12 -70 2 -91 -3 -82 -16 3 -5 0 -9 -6 -9 -6 0 -9
-4 -6 -9 7 -11 -14 -9 -34 4 -24 15 -211 13 -205 -2 2 -7 -2 -13 -10 -13 -8 0
-15 -4 -15 -10 0 -5 -6 -10 -12 -10 -10 0 -13 -73 -13 -333 l0 -332 22 -21
c13 -12 23 -29 23 -39 0 -9 9 -19 20 -22 11 -3 20 -9 20 -12 0 -4 20 -7 45 -6
31 1 45 -3 45 -12 0 -9 9 -12 25 -9 18 3 25 0 26 -12 0 -10 3 -12 6 -5 3 10 7
10 18 0 7 -7 11 -15 8 -19 -2 -5 10 -8 26 -8 18 0 31 -5 31 -12 0 -9 4 -8 10
2 8 13 10 12 10 -4 0 -12 5 -16 16 -12 8 3 25 0 37 -6 12 -7 26 -11 31 -10 5
2 4 -3 -2 -11 -9 -11 -3 -14 31 -16 48 -2 48 -2 49 -27 2 -17 12 -19 104 -19
63 0 102 4 101 10 -1 6 43 11 112 13 63 1 120 7 126 12 6 5 34 10 62 11 34 2
50 6 47 14 -3 8 12 11 51 10 31 -1 58 2 62 8 4 6 1 7 -7 2 -8 -5 -11 -4 -7 2
4 6 24 9 46 8 27 -2 41 2 45 11 4 9 22 14 55 14 27 0 53 4 56 10 7 11 33 9 53
-3 7 -5 12 -4 12 2 0 6 15 11 34 11 19 0 36 5 38 11 2 6 31 13 63 15 65 3 85
6 100 15 6 4 18 5 28 4 9 -2 17 3 17 11 0 8 6 14 14 14 7 0 16 10 19 23 6 20
5 21 -7 4 -13 -17 -14 -16 -12 7 0 13 4 22 9 19 10 -6 9 -15 11 249 1 184 -2
239 -11 243 -21 7 -17 102 5 115 16 11 16 11 0 6 -10 -3 -18 -1 -18 4 0 6 6
10 13 10 8 0 7 3 -3 9 -8 6 -17 8 -21 5 -4 -2 -9 0 -11 6 -1 5 -15 11 -31 12
-18 2 -26 7 -23 15 4 9 -3 13 -20 13 -14 0 -23 4 -20 8 4 7 -27 12 -91 15 -7
0 -11 5 -10 11 1 5 -4 11 -10 12 -7 1 -16 3 -20 4 -5 1 -11 2 -15 1 -5 0 -8 4
-8 9 0 6 -6 10 -12 9 -29 -3 -49 2 -43 11 4 6 -8 10 -30 10 -20 0 -34 4 -31 8
2 4 -10 9 -27 10 -18 2 -34 7 -35 12 -2 6 -8 8 -13 4 -5 -3 -9 -1 -9 3 0 5
-106 8 -235 8 -178 0 -236 -3 -240 -12z"/>
<path d="M1980 5477 c0 -4 -4 -5 -10 -2 -5 3 -10 2 -10 -2 0 -5 -12 -9 -27 -9
-16 1 -27 -4 -26 -10 1 -5 -15 -11 -35 -12 -20 -2 -41 -7 -46 -12 -6 -6 -20
-10 -32 -10 -12 0 -27 -7 -34 -15 -7 -8 -16 -12 -21 -9 -5 3 -9 0 -9 -6 0 -6
-4 -8 -10 -5 -5 3 -10 2 -10 -3 0 -6 -16 -9 -35 -7 -27 3 -35 0 -35 -13 0 -15
-2 -15 -10 -2 -6 10 -10 11 -10 3 0 -7 -9 -13 -21 -13 -11 0 -17 -4 -14 -10 3
-6 -5 -10 -19 -10 -14 0 -29 -7 -34 -16 -5 -9 -12 -15 -15 -15 -20 3 -24 -1
-22 -21 1 -13 4 -23 5 -23 8 0 4 -81 -4 -87 -17 -11 -15 -489 2 -495 9 -4 8
-9 -5 -20 -10 -8 -12 -12 -5 -8 7 4 12 0 12 -10 0 -10 -5 -14 -12 -10 -7 4 -5
0 4 -8 10 -8 15 -17 11 -20 -3 -4 1 -7 10 -7 10 0 17 -5 17 -11 0 -6 -6 -9
-14 -6 -7 3 -21 -4 -30 -14 -15 -18 -17 -53 -16 -307 0 -183 4 -288 10 -290 5
-2 10 -12 10 -23 0 -10 6 -19 13 -19 8 0 13 -13 13 -34 0 -30 -3 -33 -23 -30
l-23 4 0 -302 c1 -300 4 -332 35 -336 12 -2 15 -47 4 -64 -5 -7 -9 -9 -9 -5 0
5 -7 2 -15 -7 -13 -12 -15 -61 -15 -315 l0 -301 23 0 c21 0 23 -4 21 -37 -1
-21 -2 -41 -3 -45 -1 -5 -10 -8 -21 -8 -19 0 -20 -8 -22 -197 l-3 -197 -47 -1
c-26 -1 -53 -6 -60 -12 -7 -5 -29 -9 -48 -8 -19 1 -41 -3 -48 -8 -7 -6 -46
-11 -85 -12 -74 -2 -116 -16 -118 -38 -1 -7 -2 -111 -3 -232 -1 -209 0 -221
19 -237 11 -10 16 -17 12 -18 -24 -1 26 -30 52 -30 16 0 33 -5 36 -10 4 -6 10
-8 14 -6 4 3 19 -2 32 -12 13 -9 28 -17 34 -19 5 -1 24 -6 42 -11 17 -6 33 -9
35 -9 2 1 2 0 0 -2 -1 -3 18 -15 43 -27 44 -23 133 -29 161 -12 5 4 41 8 80 9
38 1 75 6 82 12 9 7 12 4 12 -11 0 -11 7 -22 15 -26 8 -3 15 -12 15 -20 0 -15
35 -32 58 -27 8 1 20 -3 27 -9 8 -7 19 -9 26 -5 6 4 15 1 20 -6 4 -8 12 -14
16 -15 4 0 15 -3 23 -7 8 -3 24 -7 35 -9 11 -2 27 -9 37 -17 9 -8 27 -16 40
-18 13 -2 28 -9 33 -16 11 -14 123 -11 140 3 6 5 37 9 70 11 33 1 65 5 70 8 6
3 18 7 28 8 9 2 26 4 37 6 11 2 23 6 26 10 4 4 22 7 41 7 18 0 33 5 33 10 0 6
12 10 26 10 14 0 34 5 44 10 11 6 40 11 65 12 25 1 45 5 45 9 0 6 24 12 110
26 13 2 29 8 35 12 5 5 20 7 32 5 13 -2 22 -1 22 4 -3 19 2 33 11 27 5 -3 9 2
8 12 -5 58 0 65 45 61 40 -2 81 -24 72 -38 -3 -4 8 -7 23 -6 19 0 26 -4 24
-14 -3 -12 0 -12 15 1 16 14 34 16 91 10 7 0 10 -6 7 -11 -4 -6 11 -10 39 -10
25 0 48 -4 51 -10 3 -5 26 -10 51 -10 29 0 43 -4 41 -12 -1 -7 10 -12 28 -12
17 0 33 -6 38 -12 4 -7 21 -11 37 -9 21 3 30 0 30 -10 0 -10 10 -15 29 -15 17
0 33 -4 36 -10 3 -5 20 -10 36 -10 17 0 37 -6 44 -13 7 -8 26 -13 42 -12 15 0
33 -4 40 -10 6 -6 34 -11 62 -10 39 1 51 -2 47 -12 -4 -9 5 -13 33 -13 43 0
95 -22 83 -36 -4 -4 0 -3 9 4 13 10 18 10 22 -1 3 -8 20 -13 47 -12 24 1 44
-4 47 -10 2 -7 20 -11 38 -10 23 1 35 -3 35 -12 0 -7 11 -13 25 -13 14 0 25
-4 25 -10 0 -5 9 -10 20 -10 11 0 20 -6 20 -14 0 -10 11 -13 38 -11 20 1 40
-2 43 -7 3 -5 31 -9 62 -9 36 0 57 -5 60 -13 3 -7 18 -13 34 -12 15 1 34 -6
41 -14 12 -13 13 -13 6 0 -7 13 -5 13 9 1 12 -10 17 -10 17 -2 0 8 6 7 16 -3
8 -9 19 -14 24 -11 4 3 11 -2 14 -11 5 -13 9 -14 20 -5 9 7 15 8 18 2 4 -11
47 -22 101 -24 25 -1 37 -6 38 -17 0 -10 2 -11 6 -3 2 7 9 13 14 13 6 0 8 -4
5 -8 -3 -5 1 -9 8 -9 8 0 12 6 9 14 -4 9 0 11 11 7 9 -3 13 -10 10 -15 -3 -5
1 -9 9 -9 8 0 18 7 21 16 4 9 13 14 21 10 9 -3 18 1 21 8 3 8 14 13 25 11 12
-2 19 2 19 11 0 8 10 14 26 14 14 0 23 4 19 10 -3 6 3 10 15 10 11 0 23 6 26
14 3 7 16 12 30 10 15 -1 28 4 31 13 5 12 7 12 14 1 7 -10 9 -9 9 4 0 12 5 15
17 11 11 -4 14 -3 9 5 -4 8 0 12 11 12 15 0 16 2 3 10 -13 8 -12 10 5 11 11 1
23 1 27 0 4 0 5 5 2 13 -3 7 2 16 10 19 9 4 16 2 16 -2 0 -5 8 -8 18 -6 9 1
16 8 14 14 -1 7 5 11 14 9 9 -2 19 3 22 11 3 9 0 11 -8 6 -9 -5 -11 -4 -6 4 4
6 12 9 17 6 5 -4 9 -2 9 3 0 6 11 13 25 16 14 4 25 11 25 17 0 7 -6 6 -17 -2
-15 -13 -15 -12 -4 8 7 14 17 20 26 17 11 -5 14 -1 9 12 -6 17 -5 17 9 -1 15
-18 16 -18 17 -2 0 10 8 17 18 17 10 0 29 10 42 23 14 12 28 21 32 20 4 -2 4
5 1 14 -5 12 -3 14 8 9 8 -4 5 -1 -5 8 -10 8 -22 14 -25 11 -4 -2 -7 5 -8 15
-1 11 2 22 7 25 5 3 7 12 3 20 -3 8 0 15 7 15 6 0 9 -4 6 -8 -3 -5 1 -9 9 -9
13 0 13 3 -1 18 -22 25 -25 70 -6 93 10 11 11 16 5 12 -7 -4 -13 -2 -13 3 0 6
4 11 9 11 11 0 9 56 -3 67 -5 4 -6 3 -2 -4 3 -6 2 -15 -4 -18 -8 -5 -7 -12 2
-23 8 -10 8 -13 1 -9 -6 4 -14 1 -17 -5 -2 -7 -4 -4 -3 7 2 11 6 25 10 32 4 6
1 14 -5 16 -10 4 -10 6 0 6 7 1 10 6 6 13 -5 8 -2 9 9 5 10 -3 17 -2 17 3 0 6
-10 10 -22 11 -13 0 -17 3 -10 6 6 2 12 16 12 30 0 23 2 24 18 12 15 -13 16
-12 4 3 -8 9 -19 15 -27 12 -7 -3 -16 0 -21 7 -4 7 -3 10 3 6 6 -4 17 1 24 10
10 12 10 14 2 9 -8 -4 -13 -2 -13 8 0 8 -5 18 -12 22 -7 5 -8 2 -3 -7 5 -8 4
-11 0 -6 -10 9 -15 47 -6 47 5 0 6 137 1 150 -1 3 -2 9 -1 13 1 5 -3 6 -9 2
-5 -3 -10 -1 -10 4 0 6 -7 11 -16 11 -8 0 -12 5 -9 10 3 6 -1 10 -9 10 -22 0
-21 40 2 41 9 1 20 1 23 1 4 -1 6 7 6 16 0 129 5 205 12 193 7 -10 9 -7 8 12
-1 14 -5 23 -9 20 -7 -3 -14 383 -9 425 1 7 -4 11 -11 10 -7 -2 -12 3 -11 10
2 6 -3 12 -10 12 -8 0 -13 15 -13 45 0 40 3 45 23 45 l23 0 0 305 c0 278 -1
305 -17 305 -9 0 -13 3 -10 6 3 4 1 16 -5 28 -6 11 -12 45 -13 73 -2 43 2 57
21 78 l24 26 0 330 c0 286 -2 329 -15 329 -8 0 -15 5 -15 11 0 6 -6 17 -14 24
-10 11 -16 11 -25 2 -9 -9 -14 -8 -21 3 -9 13 -10 13 -10 0 0 -10 -3 -11 -8
-4 -4 6 -32 10 -62 9 -62 -2 -92 4 -85 15 3 4 -39 8 -93 9 -53 1 -98 6 -100
11 -2 6 -46 10 -98 10 -71 0 -96 3 -100 14 -3 9 -18 13 -39 11 -21 -1 -32 2
-28 8 4 6 0 8 -10 4 -9 -3 -18 -3 -21 1 -2 4 -74 7 -160 7 -121 0 -155 3 -151
13 3 9 -19 12 -90 12 -57 0 -95 4 -95 10 0 6 -12 10 -26 10 -14 0 -23 4 -19 9
3 5 0 13 -6 17 -8 4 -9 3 -5 -4 8 -13 -16 -17 -28 -5 -4 4 -39 8 -77 9 -39 0
-74 5 -77 10 -4 5 -49 9 -100 10 -59 0 -96 4 -100 11 -5 7 -40 13 -85 14 -42
1 -77 6 -77 10 0 5 -27 9 -60 9 -33 0 -60 4 -60 10 0 6 -5 10 -11 10 -5 0 -7
-4 -4 -10 4 -6 -17 -10 -54 -10 -47 0 -61 3 -61 14 0 11 -10 14 -35 12 -19 -2
-35 0 -35 6 0 5 -6 6 -12 1 -7 -4 -35 -8 -61 -8 -38 0 -45 2 -32 11 8 6 15 21
15 33 0 12 4 19 10 16 6 -3 10 1 10 9 0 9 6 16 13 16 10 0 12 71 12 335 0 184
-4 335 -8 335 -13 0 -37 27 -37 42 0 10 -2 10 -9 -1 -7 -11 -9 -11 -14 0 -5
12 -6 12 -6 0 -1 -11 -4 -11 -16 -1 -12 10 -15 10 -15 0 0 -8 -4 -9 -12 -3 -7
5 -42 9 -78 8 -50 -1 -64 -4 -62 -15 3 -11 0 -11 -12 0 -9 7 -16 9 -17 4 0 -5
-4 1 -9 14 -8 20 -16 22 -79 22 -38 0 -71 4 -73 10 -1 5 -58 10 -125 11 -89 1
-120 4 -117 13 3 8 -8 12 -32 13 -20 0 -39 5 -43 10 -8 11 -471 12 -471 0z
m14 -1689 c-4 -6 -1 -8 7 -6 8 3 13 11 11 17 -1 7 2 10 7 7 10 -7 9 -25 -2
-43 -4 -6 -1 -13 5 -16 7 -3 2 -4 -12 -3 -35 3 -52 15 -43 29 4 7 8 15 9 20 1
4 2 10 3 13 0 3 6 2 11 -1 6 -4 7 -11 4 -17z m3466 -2113 c0 -2 -6 -5 -13 -8
-8 -3 -14 1 -14 8 0 7 6 11 14 8 7 -3 13 -6 13 -8z m-12 -280 c-3 -3 -9 2 -12
12 -6 14 -5 15 5 6 7 -7 10 -15 7 -18z m12 -95 c-6 -11 -13 -20 -16 -20 -2 0
0 9 6 20 6 11 13 20 16 20 2 0 0 -9 -6 -20z"/>
<path d="M1974 3769 c-8 -14 13 -18 30 -6 16 12 16 13 -4 13 -12 0 -23 -4 -26
-7z"/>
<path d="M5450 1900 c0 -5 5 -10 11 -10 5 0 7 5 4 10 -3 6 -8 10 -11 10 -2 0
-4 -4 -4 -10z"/>
<path d="M5470 1479 c0 -6 4 -8 9 -5 5 4 11 1 13 -6 3 -8 6 -7 10 3 4 10 -1
15 -13 16 -10 1 -19 -3 -19 -8z"/>
<path d="M5465 1370 c-8 -13 3 -30 18 -29 8 0 8 2 -1 6 -10 4 -10 8 -1 19 8 9
8 14 1 14 -6 0 -14 -4 -17 -10z"/>
</g>
</svg>
